<svg id="Capa_1" data-name="Capa 1" xmlns="http://www.w3.org/2000/svg" viewBox="0 0 118.68 43.54"><defs><style>.cls-1,.cls-2{fill:#f2782c;}.cls-2{font-size:17.71px;font-family:MyanmarText-Bold, Myanmar Text;font-weight:700;letter-spacing:0.08em;}</style></defs><path class="cls-1" d="M8.39,16V35.47s-.2,8.09,9.56,9V38.66s-3.36,0-3.44-2.77c-.14-5,0-19.89,0-19.89H18.7V10.19H14.51V1H8.39v9.19H4.2V16Z" transform="translate(-4.2 -1)"/><path class="cls-1" d="M33,10.19H28V1H21.92V44.48s7.69.13,10.26,0c2.23-.12,6.76-.53,6.81-5.82.06-7.52-.12-17,0-22.66C39,13.91,36.67,10.13,33,10.19Zm.23,27.16a1.6,1.6,0,0,1-1.4,1.23H28V16h4a1.26,1.26,0,0,1,1.18,1.23Z" transform="translate(-4.2 -1)"/><text class="cls-2" transform="translate(45.05 23.76)">TALENT</text><path class="cls-1" d="M59.47,35.3V27.4h3.15a4.23,4.23,0,0,1,2.22.48,1.54,1.54,0,0,1,.78,1.37,1.52,1.52,0,0,1-.47,1.12,2.61,2.61,0,0,1-1.21.67v0a2.54,2.54,0,0,1,1.48.62A1.7,1.7,0,0,1,66,32.94a2.07,2.07,0,0,1-.85,1.73,3.84,3.84,0,0,1-2.33.63Zm2-6.59v1.87h.85a1.49,1.49,0,0,0,.95-.26.87.87,0,0,0,.35-.74c0-.58-.47-.87-1.42-.87Zm0,3.2V34h1a1.73,1.73,0,0,0,1.06-.28.94.94,0,0,0,.39-.79.87.87,0,0,0-.38-.74,1.77,1.77,0,0,0-1-.27Z" transform="translate(-4.2 -1)"/><path class="cls-1" d="M72,35.44a4.25,4.25,0,0,1-3-1.1,3.79,3.79,0,0,1-1.17-2.88,4.08,4.08,0,0,1,1.18-3,4.35,4.35,0,0,1,3.15-1.15,4.11,4.11,0,0,1,3,1.1,3.91,3.91,0,0,1,1.14,2.93,4,4,0,0,1-1.18,3A4.28,4.28,0,0,1,72,35.44Zm.09-6.64a2,2,0,0,0-1.63.7,2.77,2.77,0,0,0-.6,1.86,2.74,2.74,0,0,0,.6,1.86A2,2,0,0,0,72,33.9a2,2,0,0,0,1.6-.66,2.7,2.7,0,0,0,.59-1.85,2.92,2.92,0,0,0-.57-1.91A2,2,0,0,0,72.06,28.8Z" transform="translate(-4.2 -1)"/><path class="cls-1" d="M85.68,35.3H83.37l-1.49-2.57a2,2,0,0,1-.17-.53h0a3.58,3.58,0,0,1-.2.55L80,35.3H77.66l2.76-3.95-2.52-4h2.37l1.24,2.37a5,5,0,0,1,.26.67h0q.08-.24.27-.69l1.38-2.35h2.17L83,31.32Z" transform="translate(-4.2 -1)"/><path class="cls-1" d="M97.13,35.3H92V27.4h2v6.46h3.2Z" transform="translate(-4.2 -1)"/><path class="cls-1" d="M104.37,35.3H99.22V27.4h2v6.46h3.2Z" transform="translate(-4.2 -1)"/><path class="cls-1" d="M112.67,35a6.16,6.16,0,0,1-2.47.42,4.43,4.43,0,0,1-3.14-1.07,3.71,3.71,0,0,1-1.14-2.85,4,4,0,0,1,1.28-3.07,4.73,4.73,0,0,1,3.33-1.18,6.63,6.63,0,0,1,2.14.29v1.71a4.14,4.14,0,0,0-2-.47,2.76,2.76,0,0,0-2,.7,2.46,2.46,0,0,0-.75,1.89,2.42,2.42,0,0,0,.71,1.83,2.59,2.59,0,0,0,1.9.68,4.45,4.45,0,0,0,2.09-.5Z" transform="translate(-4.2 -1)"/></svg>